<svg id="Capa_1" data-name="Capa 1" xmlns="http://www.w3.org/2000/svg" viewBox="0 0 968.17 968.17"><defs><style>.cls-1{fill:#3ebdac;}.cls-2{fill:#fff;}</style></defs><circle class="cls-1" cx="484.09" cy="484.09" r="484.09"/><path class="cls-2" d="M403.84,853c-19.74,0-28.16-8.06-28.2-27.74-.07-34.3-.18-68.59.13-102.88.06-7.24-2.06-9.76-9.52-9.68-32.81.36-65.63.28-98.44.16-24.77-.09-34.2-9.73-34.21-34.45,0-42.87-.17-85.74.09-128.6.05-7.38-2.37-9.7-9.68-9.48-16.54.48-33.11.42-49.66.14-23.81-.39-32.51-14.32-23.94-36.52,25.52-66.12,51.6-132,75.84-198.62C266,196.23,373.34,117.83,489.79,115.24c84.25-1.88,157.31,26,216.59,86.29C774,270.32,800.8,353.78,787.8,448.89c-10.37,75.87-47.55,137.62-107,185.8-4.41,3.57-6,7.08-5.95,12.64.18,59.42.09,118.84,0,178.26,0,18-9.23,27.39-27.14,27.41q-61.2.06-122.39,0Q464.59,853,403.84,853Z"/><path class="cls-1" d="M329.13,364.25c-4.12-.59-8.23-1.75-12.26-1.51-1.81.1-3.85,2.72-5.12,4.64a29,29,0,0,1-52.64-21.87c3.24-13.95,15.55-23.48,29.72-22.6,11.14.68,19.78,6.07,24.21,16.27,5.44,12.52,15.76,8.84,17.7,9,2-8.49,3.4-16.85,5.88-24.9C354.2,266.23,394.18,233.48,451,220.57c41.06-9.33,81.5-6.63,118.88,14.54,20,11.33,38.11,26,56.35,39.83,25,19,36.28,47.78,42.44,77.78,2.94,21.88,24.35,20.8,27.52,21.62,1.49-7.76,2.57-15.08,4.42-22.2.67-2.56,3-6.28,4.93-6.55,2.93-.4,7.46.82,9.14,3,9.72,12.63,18.87,25.71,28.06,38.74,3,4.23,1.43,8.29-2.3,10.89-13.26,9.24-26.61,18.36-40.23,27.07-5.76,3.68-12-.83-11.34-8.2a147.86,147.86,0,0,1,3.52-20.64c1.07-4.54.08-7-4.56-8-4-.88-8-2.13-13.11-3.54.21,3.44.37,6.11.54,8.79,2.19,33.94-.84,67.26-12.84,99.31a111.15,111.15,0,0,1-10.67,21c-23.15,35.89-68.66,28.83-89.78,1.75-9.46-12.14-14.86-26-18.18-41.42-4.35,1.22-8.55,1.82-12.12,3.65-1.58.81-2.55,4.1-2.62,6.31-.57,17.59-4.53,34.17-14,49.2-19.55,31.07-56.43,40.93-91.58,24.45-17.44-8.17-31.07-20.26-38.19-38.6-5.71-14.68-1.88-25.54,12.76-31.52a157.11,157.11,0,0,1,33.34-9c24.33-4.07,48.83-7.1,73.26-10.6,2.34-.33,4.63-1,7.57-1.59-4.37-19.4-14.67-35-27.38-50.17-6.57,12.34-15.12,22.17-27.16,28.24-30.57,15.41-62,16.74-92.75,1.77-22.72-11.06-31-32.68-34.08-56.46C329.83,381.79,329.73,373.47,329.13,364.25Zm198.27,99c3.13-.89,5.38-1.83,7.7-2.13,5.88-.77,7.33-4,7.7-9.73A93.07,93.07,0,0,1,547,427.63c10.55-31,32.66-49.57,63.88-58.12,2.39-.65,6-3.08,6.13-4.87,2-32-3-62.27-23.12-88.52A12.92,12.92,0,0,0,589,272c-19.89-8.19-49.13-.74-63,15.81-10.87,13-15.71,28.57-19.35,44.6-4.87,21.45-9.39,43-13.87,64.5a6.53,6.53,0,0,0,1.51,5C510.71,419.17,522.66,438.84,527.4,463.21Zm40.26-210.89c-3.43-2-6.66-4.12-10.08-5.85-35.79-18.08-73.26-19.62-111-8.81-52.2,15-87.19,47.43-98,102.45-.58,2.93-.84,5.92-1.38,9.91H408c-2.82-3.39-4.42-5.37-6.08-7.32-27.56-32.43-3.82-67.33,24.41-74.68,21.18-5.51,40.62,2.69,48,21.32,9.25,23.47,4.25,48.57-21.37,62.18-3.52,1.87-7.1,3.64-11.2,5.74L479.06,387c1.46-6.12,2.77-11.4,4-16.7,4.77-20.83,8.62-41.93,14.49-62.45,6.5-22.69,20.44-40.1,43.14-48.71C549.1,256,558.25,254.63,567.66,252.32Zm-9.95,216.36c4.7,22.8,16.27,39.72,36.23,50.29,14.42,7.63,28.85,5,39.78-7.24a83.82,83.82,0,0,0,11.88-17.12c11.31-21.89,13.79-45.81,14.36-69.92.34-14.1-.65-28.24-1.06-43.15H631.2C623.86,424.27,597.3,451.6,557.71,468.68ZM345.61,366.14c0,7.79-.53,15.22.09,22.54,2.46,28.86,20.27,47.8,47.6,50.63a122.61,122.61,0,0,0,44.21-3.48c17.1-4.5,28.57-15.18,35.29-31.59a21.23,21.23,0,0,0-2.16-2.42C455,389,439.36,376.07,423.55,363.4c-1.18-.94-3.68-.47-5.53-.31-10.88,1-21.72,2.5-32.61,2.93C372.34,366.53,359.23,366.14,345.61,366.14ZM513.77,482.76a22.63,22.63,0,0,0-3.08,0c-24.8,3.52-49.63,6.9-74.4,10.71-9.64,1.48-19.43,3.06-28.62,6.18-10.72,3.64-11.91,8.74-5.38,17.78a122.27,122.27,0,0,0,12.28,14.42c18.3,18.54,43.66,23.64,64.65,13.27C500.67,534.53,516.86,505.5,513.77,482.76Zm-51.3-177.22c.1-8.06-4.45-15.94-14-20.64-11.43-5.63-26-2.4-34.58,7.46-9.82,11.25-11.12,23.69-2.91,35.33,3.86,5.47,8.76,10.25,13.45,15.08a7.1,7.1,0,0,0,5.1,2C446.19,342.89,462,325.18,462.47,305.54Zm151,79.76c-25.05,3.77-54.78,33.18-55.31,65.82C581.71,445,609.91,411.67,613.45,385.3ZM656,365.75c-5.11-27.32-13.64-52.69-33.44-73.08a179.66,179.66,0,0,1,10.87,73.08ZM287.2,338.6a13.11,13.11,0,1,0,13.29,12.64A13.07,13.07,0,0,0,287.2,338.6Zm420.09,63,17.87-12-12.38-17.31C710.87,382.51,709.27,391.07,707.29,401.64Z"/><path class="cls-1" d="M457.55,567.44a81.86,81.86,0,0,1-34.71-8.07c-19.47-9.13-32.22-22-39-39.45-6.13-15.79-1.42-27.39,13.62-33.54a156.7,156.7,0,0,1,33.68-9.12c16.79-2.81,33.94-5.16,50.52-7.44,7.6-1,15.19-2.08,22.78-3.17,1.49-.21,3-.55,4.68-.95l1.23-.28c-4.67-19.08-15.18-34-25.23-46.21-7.09,12.58-15.85,21.39-26.72,26.86-31.9,16.08-63.58,16.68-94.15,1.79-20.06-9.78-31.16-28.1-34.94-57.67-.72-5.63-1-11.28-1.29-17.25-.12-2.4-.24-4.84-.39-7.34-.8-.13-1.6-.28-2.39-.42a35.1,35.1,0,0,0-8.29-.88c-.51,0-1.89.89-3.91,3.95a30.52,30.52,0,0,1-55.47-23.09,30.38,30.38,0,0,1,31.34-23.82c12.14.75,21,6.71,25.55,17.22,4.15,9.54,11.24,8.63,14.65,8.2l.34-.05c.53-2.31,1-4.62,1.51-6.92,1.2-5.61,2.44-11.41,4.14-17,17.05-55.32,55.93-90.24,115.56-103.79,44.54-10.11,84.91-5.17,120,14.7,17,9.63,32.79,21.75,48.06,33.47,2.82,2.17,5.64,4.34,8.46,6.48,21.72,16.51,35.4,41.53,43,78.71,2.41,17.9,17.57,19.44,24,20.1l.68.07q.48-2.56.93-5.07c1-5.46,1.9-10.62,3.24-15.76.64-2.47,3.13-7.28,6.23-7.7,3.41-.47,8.48.87,10.59,3.61,8.88,11.54,17.41,23.63,25.66,35.33l2.44,3.46a8.94,8.94,0,0,1,1.74,6.74,10,10,0,0,1-4.43,6.34c-11,7.66-25.5,17.66-40.27,27.11a8.64,8.64,0,0,1-9.27.37c-3.14-1.9-4.85-5.74-4.48-10a148.13,148.13,0,0,1,3.56-20.87c.5-2.1.47-3.49-.08-4.36s-1.58-1.36-3.3-1.73c-2.76-.61-5.44-1.37-8.54-2.26l-2.54-.72.07,1.11c.12,2,.23,3.73.35,5.49,2.41,37.55-1.82,70.25-13,100a111.35,111.35,0,0,1-10.82,21.26c-10,15.47-25,24.42-42.38,25.19-18.92.83-38.06-8.09-49.94-23.33-8.6-11-14.38-23.92-18.13-40.45l-2.25.55a36.24,36.24,0,0,0-8,2.56c-.72.37-1.7,2.79-1.77,5-.63,19.43-5.28,35.78-14.22,50C502.86,555.88,481.25,567.44,457.55,567.44Zm27.32-152.57a1.59,1.59,0,0,1,1.2.56c11,13.13,22.88,29.43,27.71,50.83a1.57,1.57,0,0,1-1.2,1.88l-2.74.61c-1.71.4-3.32.77-4.94,1-7.59,1.09-15.19,2.13-22.79,3.17-16.56,2.27-33.68,4.62-50.43,7.43a154,154,0,0,0-33,8.92c-13.56,5.55-17.46,15.2-11.9,29.52,6.46,16.63,18.69,29,37.4,37.74,34.44,16.15,70.45,6.56,89.6-23.86,8.64-13.72,13.13-29.56,13.74-48.42.08-2.31,1.09-6.42,3.47-7.65a38.21,38.21,0,0,1,8.68-2.82c1.23-.29,2.48-.59,3.74-.94a1.53,1.53,0,0,1,1.22.16,1.63,1.63,0,0,1,.73,1c3.63,16.83,9.31,29.79,17.89,40.79,11.26,14.45,29.38,22.94,47.33,22.13,16.31-.73,30.48-9.17,39.89-23.77A108,108,0,0,0,661,492.5c11-29.28,15.14-61.56,12.75-98.66-.11-1.76-.22-3.52-.34-5.5l-.2-3.29a1.55,1.55,0,0,1,2-1.61l4.68,1.31c3,.87,5.68,1.62,8.36,2.21s4.3,1.59,5.27,3.12c1.35,2.14.92,4.88.48,6.75a144.72,144.72,0,0,0-3.49,20.42c-.27,3.09.87,5.79,3,7.07a5.48,5.48,0,0,0,6-.33c14.73-9.42,29.21-19.39,40.18-27a7,7,0,0,0,3.13-4.32,5.77,5.77,0,0,0-1.22-4.39l-2.44-3.47c-8.23-11.67-16.74-23.73-25.58-35.22-1.22-1.58-5-2.78-7.68-2.42-.87.12-2.95,2.77-3.63,5.39-1.31,5-2.23,10.12-3.19,15.52-.39,2.16-.78,4.35-1.21,6.58a1.56,1.56,0,0,1-1.92,1.22c-.31-.08-1.07-.15-1.88-.24-6.59-.67-24.09-2.44-26.81-22.68-7.46-36.3-20.76-60.72-41.84-76.75q-4.24-3.23-8.47-6.48C601.65,258,586,246,569.14,236.47c-34.4-19.48-74-24.31-117.76-14.37-58.47,13.28-96.58,47.48-113.26,101.65-1.67,5.41-2.84,10.89-4.08,16.69-.57,2.69-1.15,5.39-1.78,8.11a1.58,1.58,0,0,1-1.66,1.2c-.13,0-.66.06-1.08.11-3.51.45-12.83,1.64-17.91-10.06-4.07-9.36-12-14.66-22.87-15.33a27.33,27.33,0,0,0-12.18,52.41,27.66,27.66,0,0,0,33.89-10.36c2.3-3.48,4.38-5.23,6.33-5.34a37.65,37.65,0,0,1,9.05.92c1.17.21,2.34.43,3.52.6a1.57,1.57,0,0,1,1.34,1.45c.19,3,.33,5.83.47,8.63.29,5.92.57,11.5,1.27,17,3.63,28.42,14.19,46,33.21,55.24C395.29,459.49,426,458.9,457,443.28c10.85-5.47,19.51-14.49,26.48-27.58a1.58,1.58,0,0,1,1.22-.82ZM456.55,552c-15.32,0-30.8-6.57-43.09-19A124.83,124.83,0,0,1,401,518.37c-3.75-5.2-5-9.16-3.95-12.47s4.25-5.72,10.09-7.71c9-3.06,18.42-4.64,28.9-6.25,18.55-2.85,37.44-5.5,55.7-8.07q9.36-1.32,18.71-2.64a14,14,0,0,1,2.4-.06l.9,0a1.57,1.57,0,0,1,1.55,1.35c3.15,23.21-13.39,53.11-35.41,64A52.49,52.49,0,0,1,456.55,552Zm55.27-67.73a6.62,6.62,0,0,0-.91.06L492.2,487c-18.26,2.56-37.14,5.21-55.67,8.06-10.33,1.59-19.59,3.15-28.36,6.13-4.76,1.61-7.41,3.47-8.12,5.69s.43,5.42,3.5,9.69a123.27,123.27,0,0,0,12.13,14.23c17.74,18,42.41,23.07,62.85,13s36.06-37.62,33.84-59.44ZM610,524.83a35.85,35.85,0,0,1-16.82-4.48c-20-10.57-32.09-27.37-37-51.36a1.56,1.56,0,0,1,.91-1.75c42-18.12,65.74-46.23,72.57-86a1.57,1.57,0,0,1,1.54-1.3h27.7a1.56,1.56,0,0,1,1.56,1.52c.13,4.67.32,9.26.5,13.8.41,10.13.8,19.7.57,29.43-.52,22-2.66,47.6-14.54,70.6a85.63,85.63,0,0,1-12.1,17.44C627.75,520.75,619.15,524.83,610,524.83ZM559.51,469.6c4.9,22.36,16.41,38.06,35.16,48,13.68,7.24,27.48,4.72,37.88-6.91a82,82,0,0,0,11.66-16.79c11.56-22.37,13.65-46.5,14.19-69.24.23-9.63-.16-19.14-.56-29.22q-.26-6.09-.46-12.32H632.51C625.27,422.9,601.37,451.22,559.51,469.6Zm-32.11-4.83a1.59,1.59,0,0,1-.82-.23,1.55,1.55,0,0,1-.71-1c-4.3-22.11-15-41.9-32.71-60.53a8.08,8.08,0,0,1-1.9-6.41c4.27-20.56,8.87-42.47,13.87-64.53,3.53-15.53,8.35-31.75,19.68-45.26,14.27-17,44.56-24.6,64.82-16.25a14.37,14.37,0,0,1,5.51,4.64c18.3,23.94,25.74,52.4,23.44,89.57-.18,2.9-4.76,5.59-7.28,6.28-31.73,8.69-52.86,27.9-62.81,57.12-2.2,6.45-3.51,13.86-4.13,23.31-.39,6.05-2.08,10.27-9.05,11.18a26.3,26.3,0,0,0-4.55,1.19c-.9.28-1.87.59-2.93.89A1.59,1.59,0,0,1,527.4,464.77Zm43.45-194.56c-16.26,0-33.9,7-43.64,18.58-10.91,13-15.59,28.8-19,43.94-5,22-9.59,43.93-13.87,64.47a5.05,5.05,0,0,0,1.11,3.63c17.68,18.59,28.54,38.36,33.16,60.39l1.21-.38a28.6,28.6,0,0,1,5.1-1.31c4.48-.59,6-2.52,6.34-8.28.64-9.74,2-17.4,4.29-24.12,10.3-30.26,32.15-50.15,65-59.13,2.24-.61,4.85-2.7,5-3.47,2.25-36.36-5-64.16-22.8-87.46a11.28,11.28,0,0,0-4.23-3.65A46.23,46.23,0,0,0,570.85,270.21ZM558.14,452.69a1.57,1.57,0,0,1-1-.34,1.55,1.55,0,0,1-.59-1.25c.54-33.21,30.89-63.47,56.64-67.35a1.6,1.6,0,0,1,1.33.44,1.57,1.57,0,0,1,.45,1.32c-3.62,26.93-32.11,60.8-56.47,67.13A1.74,1.74,0,0,1,558.14,452.69Zm53.42-65.46c-23.5,4.86-50.09,31.83-51.78,61.78C581.63,441.92,607.08,411.56,611.56,387.23ZM405.92,441.52a124.17,124.17,0,0,1-12.78-.66c-28.16-2.91-46.47-22.37-49-52.05a140,140,0,0,1-.21-15.37c.05-2.4.11-4.83.11-7.3a1.56,1.56,0,0,1,1.56-1.56c4.16,0,8.26,0,12.33.07,9.44.08,18.36.16,27.4-.2,7.1-.28,14.33-1.05,21.31-1.79,3.74-.4,7.48-.8,11.23-1.13l.88-.09c2-.21,4.27-.46,5.76.74,14.05,11.26,28.18,22.87,41.85,34.11l5.26,4.32a12,12,0,0,1,1.7,1.82c.21.26.42.52.65.78a1.56,1.56,0,0,1,.27,1.63c-7.09,17.3-19,27.93-36.34,32.51A125.25,125.25,0,0,1,405.92,441.52Zm-58.75-73.81c0,2-.06,3.89-.1,5.8a141.36,141.36,0,0,0,.19,15c2.39,28.06,19.66,46.45,46.2,49.2a121.49,121.49,0,0,0,43.65-3.43c16.06-4.23,27.15-14,33.88-29.8l-.09-.12a10,10,0,0,0-1.25-1.37l-5.27-4.33c-13.66-11.22-27.78-22.83-41.81-34.08-.49-.39-2.43-.18-3.47-.06l-1,.09c-3.72.33-7.44.73-11.17,1.12-7,.75-14.31,1.53-21.51,1.81-9.13.36-18.08.28-27.55.2C354.36,367.75,350.78,367.71,347.17,367.71Zm360.12,35.5a1.57,1.57,0,0,1-1.54-1.85l5.49-29.31a1.56,1.56,0,0,1,2.81-.62l12.38,17.31a1.57,1.57,0,0,1,.27,1.19,1.62,1.62,0,0,1-.67,1l-17.87,12A1.52,1.52,0,0,1,707.29,403.21Zm6.35-27-4.12,22,13.43-9ZM479.06,388.57a1.6,1.6,0,0,1-1-.34l-37.33-29.74a1.56,1.56,0,0,1,.26-2.62l3.83-1.95c2.57-1.3,5-2.52,7.35-3.78,22.63-12,30.54-35.1,20.65-60.23-6.92-17.56-25.45-25.75-46.12-20.37-15.51,4-29,16.58-33.66,31.22-3.06,9.68-3.79,24.64,10.06,40.93,1.08,1.27,2.14,2.56,3.54,4.25L409.2,349a1.56,1.56,0,0,1-1.2,2.56H347.17a1.55,1.55,0,0,1-1.55-1.77c.18-1.34.33-2.56.47-3.71.28-2.3.53-4.3.92-6.29,10.44-52.93,43.79-87.8,99.14-103.65,40-11.46,77.74-8.46,112.13,8.91,2.39,1.21,4.7,2.61,7,4,1.06.64,2.13,1.29,3.22,1.93a1.56,1.56,0,0,1-.42,2.87c-3,.74-6,1.38-8.92,2a123.24,123.24,0,0,0-17.89,4.77C520,268.67,505.79,284.71,499,308.3c-4,14.07-7.16,28.68-10.19,42.81-1.37,6.41-2.8,13.05-4.29,19.55-.82,3.61-1.69,7.21-2.63,11.08l-1.35,5.63a1.56,1.56,0,0,1-1,1.11A1.43,1.43,0,0,1,479.06,388.57Zm-34.46-31,33.51,26.7.78-3.25c.93-3.85,1.8-7.44,2.63-11,1.48-6.48,2.9-13.1,4.27-19.51,3-14.18,6.18-28.84,10.24-43,7-24.58,21.87-41.32,44.08-49.75a126.27,126.27,0,0,1,18.35-4.9c1.67-.35,3.37-.72,5.08-1.1-2.27-1.38-4.41-2.68-6.67-3.81-33.67-17-70.63-19.94-109.86-8.71-54.13,15.5-86.74,49.57-96.93,101.25-.37,1.89-.61,3.83-.88,6.08-.08.63-.16,1.28-.25,2h55.73l-.43-.52c-1.39-1.67-2.44-2.95-3.52-4.22-11.52-13.55-15.31-29.14-10.65-43.89,5-15.87,19.09-28.95,35.86-33.31,22.27-5.8,42.28,3.15,49.81,22.26,10.53,26.73,2.06,51.3-22.1,64.13-2.39,1.27-4.81,2.5-7.39,3.81ZM656,367.32H633.4a1.57,1.57,0,0,1-1.57-1.65,179.17,179.17,0,0,0-10.76-72.45,1.56,1.56,0,0,1,2.59-1.63c22,22.64,29.64,51.37,33.85,73.88a1.58,1.58,0,0,1-1.54,1.85ZM635,364.19h19c-3.84-19.88-10.54-44.29-27.52-64.69A183.16,183.16,0,0,1,635,364.19Zm-347.63,2.18a14.68,14.68,0,0,1-10.8-24.68A14.84,14.84,0,0,1,287.16,337h0a14.74,14.74,0,0,1,14.89,14.14,14.61,14.61,0,0,1-14.51,15.2Zm-.17-26.21a11.73,11.73,0,0,0-8.35,3.67,11.56,11.56,0,0,0,8.52,19.41h.1a11.48,11.48,0,0,0,11.41-11.94,11.56,11.56,0,0,0-11.4-11.14Zm0-1.56h0Zm141.91,7.74a8.78,8.78,0,0,1-5.81-2.48L421.45,342a112.93,112.93,0,0,1-11.76-13.38c-8.51-12.06-7.44-25.3,3-37.26,9.12-10.44,24.45-13.73,36.44-7.84,9.57,4.71,15,12.76,14.89,22.07v0c-.53,20.06-16.26,38.71-34.35,40.73A5.49,5.49,0,0,1,429.11,346.34Zm7.27-62.64a28.5,28.5,0,0,0-21.32,9.69c-9.54,10.93-10.52,22.47-2.81,33.4a109.76,109.76,0,0,0,11.44,13l1.85,1.9a5.47,5.47,0,0,0,3.81,1.51c16.33-1.82,31.07-19.43,31.56-37.68.09-8.05-4.7-15.06-13.14-19.21A25.84,25.84,0,0,0,436.38,283.7Zm26.09,21.84h0Z"/></svg>